<mxfile host="65bd71144e">
    <diagram id="fcGt7EVClolYBT90Z-lD" name="Page-1">
        <mxGraphModel dx="1732" dy="547" grid="1" gridSize="10" guides="1" tooltips="1" connect="1" arrows="1" fold="1" page="1" pageScale="1" pageWidth="850" pageHeight="1100" math="0" shadow="0">
            <root>
                <mxCell id="0"/>
                <mxCell id="1" parent="0"/>
                <mxCell id="32" value="&lt;font style=&quot;font-size: 24px&quot;&gt;Mongoo DB collections&amp;nbsp;&lt;/font&gt;" style="text;html=1;align=center;verticalAlign=middle;resizable=0;points=[];autosize=1;strokeColor=none;fillColor=none;" parent="1" vertex="1">
                    <mxGeometry x="-80" y="140" width="270" height="20" as="geometry"/>
                </mxCell>
                <mxCell id="39" value="" style="shape=ext;double=1;rounded=0;whiteSpace=wrap;html=1;fontSize=13;fillColor=none;" parent="1" vertex="1">
                    <mxGeometry x="90" y="300" width="370" height="510" as="geometry"/>
                </mxCell>
                <mxCell id="40" value="&lt;font style=&quot;font-size: 20px&quot; color=&quot;#66ffff&quot;&gt;customer&lt;/font&gt;" style="shape=ext;double=1;rounded=0;whiteSpace=wrap;html=1;fontSize=13;fillColor=none;" parent="1" vertex="1">
                    <mxGeometry x="90" y="220" width="370" height="80" as="geometry"/>
                </mxCell>
                <mxCell id="42" value="_id : ObjectId" style="text;html=1;align=center;verticalAlign=middle;resizable=0;points=[];autosize=1;strokeColor=none;fillColor=none;fontSize=20;" parent="1" vertex="1">
                    <mxGeometry x="110" y="350" width="130" height="30" as="geometry"/>
                </mxCell>
                <mxCell id="43" value="firstName : string" style="text;html=1;align=center;verticalAlign=middle;resizable=0;points=[];autosize=1;strokeColor=none;fillColor=none;fontSize=20;" parent="1" vertex="1">
                    <mxGeometry x="105" y="390" width="170" height="30" as="geometry"/>
                </mxCell>
                <mxCell id="44" value="lastName : string" style="text;html=1;align=center;verticalAlign=middle;resizable=0;points=[];autosize=1;strokeColor=none;fillColor=none;fontSize=20;" parent="1" vertex="1">
                    <mxGeometry x="105" y="430" width="170" height="30" as="geometry"/>
                </mxCell>
                <mxCell id="45" value="email : string" style="text;html=1;align=center;verticalAlign=middle;resizable=0;points=[];autosize=1;strokeColor=none;fillColor=none;fontSize=20;" parent="1" vertex="1">
                    <mxGeometry x="105" y="470" width="130" height="30" as="geometry"/>
                </mxCell>
                <mxCell id="46" value="phone : string" style="text;html=1;align=center;verticalAlign=middle;resizable=0;points=[];autosize=1;strokeColor=none;fillColor=none;fontSize=20;" parent="1" vertex="1">
                    <mxGeometry x="105" y="510" width="140" height="30" as="geometry"/>
                </mxCell>
                <mxCell id="47" value="{" style="text;html=1;align=center;verticalAlign=middle;resizable=0;points=[];autosize=1;strokeColor=none;fillColor=none;fontSize=20;" parent="1" vertex="1">
                    <mxGeometry x="120" y="315" width="20" height="30" as="geometry"/>
                </mxCell>
                <mxCell id="48" value="}" style="text;html=1;align=center;verticalAlign=middle;resizable=0;points=[];autosize=1;strokeColor=none;fillColor=none;fontSize=20;" parent="1" vertex="1">
                    <mxGeometry x="130" y="670" width="20" height="30" as="geometry"/>
                </mxCell>
                <mxCell id="61" value="" style="shape=ext;double=1;rounded=0;whiteSpace=wrap;html=1;fontSize=13;fillColor=none;" parent="1" vertex="1">
                    <mxGeometry x="570" y="310" width="420" height="470" as="geometry"/>
                </mxCell>
                <mxCell id="62" value="&lt;b&gt;_id &lt;/b&gt;: ObjectId" style="text;html=1;align=center;verticalAlign=middle;resizable=0;points=[];autosize=1;strokeColor=none;fillColor=none;fontSize=20;" parent="1" vertex="1">
                    <mxGeometry x="635" y="380" width="140" height="30" as="geometry"/>
                </mxCell>
                <mxCell id="63" value="&lt;b&gt;name&lt;/b&gt;: string" style="text;html=1;align=center;verticalAlign=middle;resizable=0;points=[];autosize=1;strokeColor=none;fillColor=none;fontSize=20;" parent="1" vertex="1">
                    <mxGeometry x="635" y="410" width="130" height="30" as="geometry"/>
                </mxCell>
                <mxCell id="64" value="&lt;b&gt;describtion&lt;/b&gt;: string" style="text;html=1;align=center;verticalAlign=middle;resizable=0;points=[];autosize=1;strokeColor=none;fillColor=none;fontSize=20;" parent="1" vertex="1">
                    <mxGeometry x="635" y="450" width="180" height="30" as="geometry"/>
                </mxCell>
                <mxCell id="67" value="{" style="text;html=1;align=center;verticalAlign=middle;resizable=0;points=[];autosize=1;strokeColor=none;fillColor=none;fontSize=20;" parent="1" vertex="1">
                    <mxGeometry x="645" y="340" width="20" height="30" as="geometry"/>
                </mxCell>
                <mxCell id="69" value="&lt;font color=&quot;#66ffff&quot;&gt;&lt;span style=&quot;font-size: 20px&quot;&gt;menu&lt;/span&gt;&lt;/font&gt;" style="shape=ext;double=1;rounded=0;whiteSpace=wrap;html=1;fontSize=13;fillColor=none;" parent="1" vertex="1">
                    <mxGeometry x="570" y="230" width="420" height="80" as="geometry"/>
                </mxCell>
                <mxCell id="83" value="" style="shape=ext;double=1;rounded=0;whiteSpace=wrap;html=1;fontSize=13;fillColor=none;" parent="1" vertex="1">
                    <mxGeometry x="1480" y="310" width="370" height="340" as="geometry"/>
                </mxCell>
                <mxCell id="84" value="&lt;font color=&quot;#66ffff&quot;&gt;&lt;span style=&quot;font-size: 20px&quot;&gt;menu_items&lt;/span&gt;&lt;/font&gt;" style="shape=ext;double=1;rounded=0;whiteSpace=wrap;html=1;fontSize=13;fillColor=none;" parent="1" vertex="1">
                    <mxGeometry x="1480" y="230" width="370" height="80" as="geometry"/>
                </mxCell>
                <mxCell id="85" value="_id : ObjectId" style="text;html=1;align=center;verticalAlign=middle;resizable=0;points=[];autosize=1;strokeColor=none;fillColor=none;fontSize=20;" parent="1" vertex="1">
                    <mxGeometry x="1510" y="360" width="130" height="30" as="geometry"/>
                </mxCell>
                <mxCell id="86" value="customerId: objectId" style="text;html=1;align=center;verticalAlign=middle;resizable=0;points=[];autosize=1;strokeColor=none;fillColor=none;fontSize=20;" parent="1" vertex="1">
                    <mxGeometry x="1505" y="400" width="200" height="30" as="geometry"/>
                </mxCell>
                <mxCell id="87" value="meals:&amp;nbsp; [ Object Id ]" style="text;html=1;align=center;verticalAlign=middle;resizable=0;points=[];autosize=1;strokeColor=none;fillColor=none;fontSize=20;" parent="1" vertex="1">
                    <mxGeometry x="1510" y="440" width="190" height="30" as="geometry"/>
                </mxCell>
                <mxCell id="90" value="{" style="text;html=1;align=center;verticalAlign=middle;resizable=0;points=[];autosize=1;strokeColor=none;fillColor=none;fontSize=20;" parent="1" vertex="1">
                    <mxGeometry x="1510" y="325" width="20" height="30" as="geometry"/>
                </mxCell>
                <mxCell id="91" value="}" style="text;html=1;align=center;verticalAlign=middle;resizable=0;points=[];autosize=1;strokeColor=none;fillColor=none;fontSize=20;" parent="1" vertex="1">
                    <mxGeometry x="1520" y="500" width="20" height="30" as="geometry"/>
                </mxCell>
                <mxCell id="93" value="" style="shape=ext;double=1;rounded=0;whiteSpace=wrap;html=1;fontSize=13;fillColor=none;" parent="1" vertex="1">
                    <mxGeometry x="1030" y="325" width="420" height="790" as="geometry"/>
                </mxCell>
                <mxCell id="94" value="&lt;b&gt;_id &lt;/b&gt;: ObjectId" style="text;html=1;align=center;verticalAlign=middle;resizable=0;points=[];autosize=1;strokeColor=none;fillColor=none;fontSize=20;" parent="1" vertex="1">
                    <mxGeometry x="1105" y="390" width="140" height="30" as="geometry"/>
                </mxCell>
                <mxCell id="95" value="&lt;b&gt;name&lt;/b&gt;: string" style="text;html=1;align=center;verticalAlign=middle;resizable=0;points=[];autosize=1;strokeColor=none;fillColor=none;fontSize=20;" parent="1" vertex="1">
                    <mxGeometry x="1110" y="420" width="130" height="30" as="geometry"/>
                </mxCell>
                <mxCell id="96" value="&lt;b&gt;describtion&lt;/b&gt;: string" style="text;html=1;align=center;verticalAlign=middle;resizable=0;points=[];autosize=1;strokeColor=none;fillColor=none;fontSize=20;" parent="1" vertex="1">
                    <mxGeometry x="1110" y="460" width="180" height="30" as="geometry"/>
                </mxCell>
                <mxCell id="97" value="{" style="text;html=1;align=center;verticalAlign=middle;resizable=0;points=[];autosize=1;strokeColor=none;fillColor=none;fontSize=20;" parent="1" vertex="1">
                    <mxGeometry x="1105" y="350" width="20" height="30" as="geometry"/>
                </mxCell>
                <mxCell id="98" value="&lt;font color=&quot;#66ffff&quot;&gt;&lt;span style=&quot;font-size: 20px&quot;&gt;meals&lt;/span&gt;&lt;/font&gt;" style="shape=ext;double=1;rounded=0;whiteSpace=wrap;html=1;fontSize=13;fillColor=none;" parent="1" vertex="1">
                    <mxGeometry x="1030" y="245" width="420" height="80" as="geometry"/>
                </mxCell>
                <mxCell id="101" value="&lt;br&gt;&lt;b&gt;&lt;br&gt;&lt;/b&gt;" style="text;html=1;align=center;verticalAlign=middle;resizable=0;points=[];autosize=1;strokeColor=none;fillColor=none;fontSize=20;" parent="1" vertex="1">
                    <mxGeometry x="1200" y="560" width="20" height="50" as="geometry"/>
                </mxCell>
                <mxCell id="104" value="&lt;b&gt;components&lt;/b&gt;: string" style="text;html=1;align=center;verticalAlign=middle;resizable=0;points=[];autosize=1;strokeColor=none;fillColor=none;fontSize=20;" parent="1" vertex="1">
                    <mxGeometry x="1110" y="550" width="190" height="30" as="geometry"/>
                </mxCell>
                <mxCell id="105" value="&lt;b&gt;image&lt;/b&gt;: string" style="text;html=1;align=center;verticalAlign=middle;resizable=0;points=[];autosize=1;strokeColor=none;fillColor=none;fontSize=20;" parent="1" vertex="1">
                    <mxGeometry x="1115" y="600" width="130" height="30" as="geometry"/>
                </mxCell>
                <mxCell id="106" value="&lt;div style=&quot;text-align: left&quot;&gt;&amp;nbsp;&lt;b&gt;reviews&lt;/b&gt;: [&lt;/div&gt;&lt;div style=&quot;text-align: left&quot;&gt;&lt;span&gt;{&lt;/span&gt;&lt;/div&gt;&lt;b&gt;customer_id &lt;/b&gt;: objectId ,&amp;nbsp;&lt;br&gt;&lt;b&gt;rate&lt;/b&gt;: enum [-5,0,5],&lt;br&gt;&lt;div style=&quot;text-align: left&quot;&gt;&lt;b&gt;&amp;nbsp; &amp;nbsp; &amp;nbsp;comment&lt;/b&gt;&lt;span&gt;: string&amp;nbsp;&lt;/span&gt;&lt;/div&gt;&lt;b&gt;&lt;div style=&quot;text-align: left&quot;&gt;&lt;b&gt;&amp;nbsp; &amp;nbsp; &amp;nbsp;image &lt;/b&gt;&lt;span style=&quot;font-weight: normal&quot;&gt;: string&amp;nbsp;&amp;nbsp;&lt;/span&gt;&lt;/div&gt;&lt;/b&gt;&lt;div style=&quot;text-align: left&quot;&gt;&lt;span&gt;}&lt;/span&gt;&lt;/div&gt;&lt;div style=&quot;text-align: left&quot;&gt;&lt;span&gt;]&lt;/span&gt;&lt;/div&gt;" style="text;html=1;align=center;verticalAlign=middle;resizable=0;points=[];autosize=1;strokeColor=none;fillColor=none;fontSize=20;" parent="1" vertex="1">
                    <mxGeometry x="1105" y="750" width="240" height="200" as="geometry"/>
                </mxCell>
                <mxCell id="107" value="}" style="text;html=1;align=center;verticalAlign=middle;resizable=0;points=[];autosize=1;strokeColor=none;fillColor=none;fontSize=20;" parent="1" vertex="1">
                    <mxGeometry x="1080" y="1040" width="20" height="30" as="geometry"/>
                </mxCell>
                <mxCell id="111" value="&lt;b&gt;categoryID&lt;/b&gt;: ObjectID" style="text;html=1;align=center;verticalAlign=middle;resizable=0;points=[];autosize=1;strokeColor=none;fillColor=none;fontSize=20;" parent="1" vertex="1">
                    <mxGeometry x="1110" y="650" width="210" height="30" as="geometry"/>
                </mxCell>
                <mxCell id="113" value="&lt;b&gt;categoryName&lt;/b&gt;: enum[ ]" style="text;html=1;align=center;verticalAlign=middle;resizable=0;points=[];autosize=1;strokeColor=none;fillColor=none;fontSize=20;" parent="1" vertex="1">
                    <mxGeometry x="625" y="490" width="230" height="30" as="geometry"/>
                </mxCell>
                <mxCell id="115" value="}" style="text;html=1;align=center;verticalAlign=middle;resizable=0;points=[];autosize=1;strokeColor=none;fillColor=none;fontSize=20;" parent="1" vertex="1">
                    <mxGeometry x="625" y="560" width="20" height="30" as="geometry"/>
                </mxCell>
                <mxCell id="139" value="password: string" style="text;html=1;align=center;verticalAlign=middle;resizable=0;points=[];autosize=1;strokeColor=none;fillColor=none;fontSize=20;" parent="1" vertex="1">
                    <mxGeometry x="115" y="550" width="160" height="30" as="geometry"/>
                </mxCell>
                <mxCell id="140" value="role: enum ['customer' , 'admin']" style="text;html=1;align=center;verticalAlign=middle;resizable=0;points=[];autosize=1;strokeColor=none;fillColor=none;fontSize=20;" parent="1" vertex="1">
                    <mxGeometry x="105" y="610" width="300" height="30" as="geometry"/>
                </mxCell>
                <mxCell id="141" value="" style="shape=ext;double=1;rounded=0;whiteSpace=wrap;html=1;fontSize=13;fillColor=none;" vertex="1" parent="1">
                    <mxGeometry x="1920" y="310" width="370" height="340" as="geometry"/>
                </mxCell>
                <mxCell id="142" value="&lt;font color=&quot;#66ffff&quot;&gt;&lt;span style=&quot;font-size: 20px&quot;&gt;reviews&lt;/span&gt;&lt;/font&gt;" style="shape=ext;double=1;rounded=0;whiteSpace=wrap;html=1;fontSize=13;fillColor=none;" vertex="1" parent="1">
                    <mxGeometry x="1920" y="230" width="370" height="80" as="geometry"/>
                </mxCell>
                <mxCell id="143" value="_id : ObjectId" style="text;html=1;align=center;verticalAlign=middle;resizable=0;points=[];autosize=1;strokeColor=none;fillColor=none;fontSize=20;" vertex="1" parent="1">
                    <mxGeometry x="1950" y="360" width="130" height="30" as="geometry"/>
                </mxCell>
                <mxCell id="146" value="{" style="text;html=1;align=center;verticalAlign=middle;resizable=0;points=[];autosize=1;strokeColor=none;fillColor=none;fontSize=20;" vertex="1" parent="1">
                    <mxGeometry x="1950" y="325" width="20" height="30" as="geometry"/>
                </mxCell>
                <mxCell id="148" value="&lt;div style=&quot;text-align: left&quot;&gt;&lt;br&gt;&lt;/div&gt;&lt;b&gt;customer_id &lt;/b&gt;: objectId ,&amp;nbsp;&lt;br&gt;&lt;b&gt;rate&lt;/b&gt;: enum [-5,0,5],&lt;br&gt;&lt;div style=&quot;text-align: left&quot;&gt;&lt;b&gt;&amp;nbsp; &amp;nbsp; &amp;nbsp;comment&lt;/b&gt;&lt;span&gt;: string&amp;nbsp;&lt;/span&gt;&lt;/div&gt;&lt;b&gt;&lt;div style=&quot;text-align: left&quot;&gt;&lt;b&gt;&amp;nbsp; &amp;nbsp; &amp;nbsp;image &lt;/b&gt;&lt;span style=&quot;font-weight: normal&quot;&gt;: string&amp;nbsp;&amp;nbsp;&lt;/span&gt;&lt;/div&gt;&lt;/b&gt;&lt;div style=&quot;text-align: left&quot;&gt;&lt;br&gt;&lt;/div&gt;&lt;div style=&quot;text-align: left&quot;&gt;&lt;br&gt;&lt;/div&gt;" style="text;html=1;align=center;verticalAlign=middle;resizable=0;points=[];autosize=1;strokeColor=none;fillColor=none;fontSize=20;" vertex="1" parent="1">
                    <mxGeometry x="1950" y="390" width="240" height="170" as="geometry"/>
                </mxCell>
                <mxCell id="149" value="mealId: ObjectId" style="text;html=1;align=center;verticalAlign=middle;resizable=0;points=[];autosize=1;strokeColor=none;fillColor=none;fontSize=20;" vertex="1" parent="1">
                    <mxGeometry x="1960" y="530" width="160" height="30" as="geometry"/>
                </mxCell>
                <mxCell id="150" value="}" style="text;html=1;align=center;verticalAlign=middle;resizable=0;points=[];autosize=1;strokeColor=none;fillColor=none;fontSize=20;" vertex="1" parent="1">
                    <mxGeometry x="1970" y="580" width="20" height="30" as="geometry"/>
                </mxCell>
            </root>
        </mxGraphModel>
    </diagram>
</mxfile>